<?xml version="1.0" encoding="UTF-8"?>
<svg xmlns="http://www.w3.org/2000/svg" xmlns:xlink="http://www.w3.org/1999/xlink" width="16px" height="16px" viewBox="0 0 16 16" version="1.1">
<g id="surface1">
<path style=" stroke:none;fill-rule:nonzero;fill:rgb(0%,0%,0%);fill-opacity:1;" d="M 10.808594 7.292969 C 10.707031 7.234375 10.574219 7.269531 10.515625 7.375 C 10.457031 7.476562 10.492188 7.609375 10.597656 7.667969 C 10.757812 7.757812 10.855469 7.859375 10.917969 7.964844 C 10.652344 8.058594 10.414062 8.097656 10.207031 8.097656 C 9.902344 8.097656 9.652344 8.015625 9.441406 7.894531 C 9.230469 7.769531 9.058594 7.601562 8.929688 7.425781 C 8.71875 7.132812 8.441406 6.875 8.113281 6.6875 C 7.789062 6.5 7.410156 6.382812 7.007812 6.382812 C 6.652344 6.382812 6.28125 6.472656 5.910156 6.675781 C 5.757812 6.757812 5.625 6.855469 5.511719 6.960938 C 5.0625 7.136719 4.671875 7.199219 4.34375 7.199219 C 3.878906 7.199219 3.527344 7.074219 3.292969 6.949219 C 3.179688 6.886719 3.089844 6.828125 3.035156 6.78125 C 3.003906 6.757812 2.984375 6.742188 2.972656 6.730469 L 2.957031 6.714844 C 2.875 6.628906 2.738281 6.628906 2.652344 6.710938 C 2.566406 6.792969 2.5625 6.929688 2.644531 7.015625 C 2.65625 7.027344 2.808594 7.179688 3.09375 7.332031 C 3.214844 7.398438 3.371094 7.464844 3.546875 7.515625 C 3.5 7.582031 3.433594 7.679688 3.367188 7.800781 C 3.230469 8.039062 3.078125 8.371094 3 8.761719 C 2.976562 8.878906 3.050781 8.992188 3.167969 9.015625 C 3.285156 9.039062 3.398438 8.964844 3.421875 8.847656 C 3.488281 8.515625 3.625 8.222656 3.742188 8.015625 C 3.800781 7.910156 3.855469 7.828125 3.894531 7.773438 C 3.914062 7.742188 3.929688 7.722656 3.941406 7.707031 C 3.945312 7.703125 3.949219 7.695312 3.953125 7.695312 L 3.957031 7.691406 C 3.976562 7.664062 3.988281 7.636719 3.996094 7.609375 C 4.105469 7.621094 4.222656 7.632812 4.34375 7.632812 C 4.574219 7.632812 4.820312 7.605469 5.089844 7.542969 C 4.957031 7.832031 4.902344 8.128906 4.902344 8.402344 C 4.902344 8.679688 4.957031 8.929688 5.050781 9.132812 C 5.101562 9.238281 5.230469 9.285156 5.339844 9.234375 C 5.445312 9.183594 5.492188 9.054688 5.441406 8.945312 C 5.382812 8.820312 5.335938 8.621094 5.335938 8.402344 C 5.335938 8.167969 5.386719 7.910156 5.507812 7.671875 C 5.632812 7.433594 5.820312 7.21875 6.117188 7.054688 C 6.429688 6.886719 6.726562 6.816406 7.007812 6.816406 C 7.328125 6.816406 7.628906 6.90625 7.898438 7.0625 C 8.167969 7.21875 8.402344 7.4375 8.582031 7.679688 C 8.738281 7.894531 8.949219 8.105469 9.21875 8.265625 C 9.492188 8.425781 9.824219 8.53125 10.207031 8.53125 C 10.460938 8.53125 10.738281 8.484375 11.035156 8.382812 L 11.035156 8.398438 C 11.035156 8.503906 11.019531 8.601562 11 8.671875 C 10.992188 8.703125 10.984375 8.730469 10.980469 8.75 C 10.976562 8.757812 10.972656 8.765625 10.972656 8.765625 L 10.972656 8.769531 C 10.929688 8.882812 10.980469 9.007812 11.09375 9.050781 C 11.203125 9.097656 11.328125 9.042969 11.375 8.929688 C 11.378906 8.914062 11.464844 8.699219 11.46875 8.398438 C 11.46875 8.226562 11.4375 8.027344 11.335938 7.824219 C 11.238281 7.625 11.066406 7.433594 10.808594 7.292969 Z M 10.808594 7.292969 "/>
<path style=" stroke:none;fill-rule:nonzero;fill:rgb(0%,0%,0%);fill-opacity:1;" d="M 11.292969 5.84375 C 10.699219 5.84375 10.21875 5.625 9.890625 5.339844 C 9.726562 5.195312 9.597656 5.035156 9.515625 4.882812 C 9.429688 4.730469 9.390625 4.582031 9.394531 4.472656 C 9.394531 4.355469 9.296875 4.257812 9.175781 4.257812 C 9.058594 4.257812 8.960938 4.355469 8.960938 4.472656 C 8.960938 4.679688 9.023438 4.886719 9.132812 5.089844 C 9.25 5.300781 9.417969 5.507812 9.632812 5.6875 C 9.589844 5.746094 9.53125 5.824219 9.453125 5.90625 C 9.289062 6.085938 9.050781 6.285156 8.765625 6.386719 C 8.652344 6.425781 8.59375 6.550781 8.636719 6.664062 C 8.675781 6.777344 8.800781 6.835938 8.914062 6.796875 C 9.296875 6.65625 9.585938 6.402344 9.78125 6.191406 C 9.867188 6.09375 9.9375 6.003906 9.988281 5.9375 C 10.34375 6.140625 10.789062 6.277344 11.292969 6.277344 C 11.414062 6.277344 11.511719 6.183594 11.511719 6.0625 C 11.507812 5.941406 11.414062 5.84375 11.292969 5.84375 Z M 11.292969 5.84375 "/>
<path style=" stroke:none;fill-rule:nonzero;fill:rgb(0%,0%,0%);fill-opacity:1;" d="M 9.851562 10.078125 C 9.445312 10.078125 9.121094 10 8.863281 9.882812 C 8.476562 9.703125 8.226562 9.425781 8.066406 9.148438 C 7.988281 9.011719 7.933594 8.875 7.902344 8.753906 C 7.867188 8.636719 7.851562 8.53125 7.851562 8.46875 C 7.851562 8.347656 7.757812 8.25 7.636719 8.25 C 7.515625 8.25 7.421875 8.347656 7.421875 8.46875 C 7.421875 8.546875 7.429688 8.632812 7.449219 8.726562 C 7.480469 8.890625 7.542969 9.082031 7.644531 9.28125 C 7.800781 9.574219 8.042969 9.886719 8.402344 10.121094 C 8.496094 10.179688 8.59375 10.234375 8.699219 10.28125 C 8.714844 10.351562 8.738281 10.480469 8.738281 10.632812 C 8.738281 10.742188 8.726562 10.867188 8.691406 10.992188 C 8.660156 11.121094 8.605469 11.25 8.515625 11.375 C 8.449219 11.472656 8.472656 11.609375 8.570312 11.675781 C 8.671875 11.746094 8.804688 11.71875 8.875 11.621094 C 8.992188 11.449219 9.066406 11.273438 9.109375 11.105469 C 9.15625 10.933594 9.171875 10.773438 9.171875 10.632812 C 9.171875 10.5625 9.167969 10.496094 9.160156 10.4375 C 9.371094 10.484375 9.597656 10.511719 9.851562 10.511719 C 9.96875 10.511719 10.066406 10.414062 10.066406 10.296875 C 10.066406 10.175781 9.96875 10.078125 9.851562 10.078125 Z M 9.851562 10.078125 "/>
<path style=" stroke:none;fill-rule:nonzero;fill:rgb(0%,0%,0%);fill-opacity:1;" d="M 12.789062 6.828125 C 12.683594 6.734375 12.566406 6.660156 12.445312 6.605469 C 12.324219 6.550781 12.195312 6.519531 12.0625 6.519531 C 11.945312 6.519531 11.847656 6.617188 11.847656 6.734375 C 11.847656 6.855469 11.945312 6.953125 12.0625 6.953125 C 12.140625 6.953125 12.242188 6.980469 12.347656 7.042969 C 12.507812 7.132812 12.671875 7.296875 12.792969 7.5 C 12.914062 7.703125 12.988281 7.949219 12.988281 8.199219 C 12.988281 8.476562 12.902344 8.765625 12.664062 9.050781 C 12.589844 9.144531 12.601562 9.28125 12.695312 9.355469 C 12.785156 9.433594 12.921875 9.417969 13 9.328125 C 13.296875 8.96875 13.421875 8.570312 13.421875 8.199219 C 13.421875 7.972656 13.378906 7.757812 13.300781 7.558594 C 13.1875 7.265625 13.003906 7.011719 12.789062 6.828125 Z M 12.789062 6.828125 "/>
<path style=" stroke:none;fill-rule:nonzero;fill:rgb(0%,0%,0%);fill-opacity:1;" d="M 5.253906 5.671875 C 5.402344 5.496094 5.613281 5.359375 5.855469 5.265625 C 6.09375 5.171875 6.363281 5.125 6.617188 5.125 C 6.863281 5.125 7.089844 5.171875 7.257812 5.25 C 7.367188 5.296875 7.496094 5.25 7.542969 5.140625 C 7.59375 5.035156 7.546875 4.90625 7.4375 4.855469 C 7.195312 4.742188 6.914062 4.691406 6.617188 4.691406 C 6.3125 4.691406 5.996094 4.746094 5.699219 4.859375 C 5.402344 4.976562 5.128906 5.148438 4.921875 5.394531 C 4.84375 5.484375 4.855469 5.621094 4.945312 5.699219 C 5.039062 5.777344 5.175781 5.765625 5.253906 5.671875 Z M 5.253906 5.671875 "/>
<path style=" stroke:none;fill-rule:nonzero;fill:rgb(0%,0%,0%);fill-opacity:1;" d="M 15.382812 6.511719 C 15.34375 6.472656 15.300781 6.4375 15.261719 6.402344 C 15.28125 6.28125 15.296875 6.15625 15.296875 6.03125 C 15.296875 5.699219 15.214844 5.359375 15.050781 5.046875 C 14.863281 4.6875 14.582031 4.40625 14.257812 4.210938 C 14.03125 4.078125 13.777344 3.988281 13.519531 3.945312 C 13.457031 3.722656 13.355469 3.507812 13.222656 3.3125 C 13.003906 2.992188 12.6875 2.722656 12.304688 2.558594 C 12.027344 2.441406 11.738281 2.382812 11.453125 2.382812 C 11.453125 2.382812 11.445312 2.382812 11.429688 2.382812 C 11.070312 2.386719 10.71875 2.484375 10.410156 2.65625 C 10.285156 2.507812 10.148438 2.378906 9.992188 2.269531 C 9.648438 2.027344 9.230469 1.886719 8.78125 1.882812 C 8.777344 1.882812 8.769531 1.882812 8.761719 1.882812 C 8.761719 1.882812 8.761719 1.882812 8.757812 1.882812 C 8.753906 1.882812 8.746094 1.882812 8.742188 1.882812 C 8.351562 1.882812 7.984375 1.992188 7.667969 2.179688 C 7.53125 2.257812 7.40625 2.355469 7.292969 2.464844 C 6.964844 2.261719 6.582031 2.140625 6.167969 2.140625 L 6.160156 2.140625 C 6.160156 2.140625 6.15625 2.140625 6.15625 2.140625 C 6.152344 2.140625 6.144531 2.140625 6.136719 2.140625 C 5.699219 2.144531 5.289062 2.28125 4.953125 2.507812 C 4.757812 2.640625 4.585938 2.808594 4.445312 2.996094 C 4.265625 2.945312 4.078125 2.921875 3.886719 2.921875 C 3.726562 2.921875 3.566406 2.9375 3.40625 2.976562 C 2.933594 3.082031 2.527344 3.34375 2.238281 3.691406 C 2.035156 3.933594 1.890625 4.21875 1.808594 4.527344 C 1.5 4.632812 1.210938 4.808594 0.964844 5.054688 C 0.558594 5.472656 0.351562 6.015625 0.351562 6.554688 L 0.351562 6.566406 C 0.351562 6.753906 0.378906 6.941406 0.429688 7.121094 C 0.148438 7.492188 0 7.945312 0 8.410156 C 0 8.75 0.0820312 9.097656 0.253906 9.421875 C 0.445312 9.78125 0.730469 10.066406 1.058594 10.257812 C 1.292969 10.394531 1.546875 10.484375 1.808594 10.527344 C 1.949219 10.902344 2.1875 11.226562 2.496094 11.46875 C 2.863281 11.753906 3.324219 11.925781 3.816406 11.925781 C 3.867188 11.925781 3.921875 11.921875 3.972656 11.917969 C 4.191406 11.902344 4.402344 11.855469 4.59375 11.777344 C 4.726562 11.984375 4.886719 12.167969 5.078125 12.320312 C 5.441406 12.613281 5.90625 12.789062 6.40625 12.789062 C 6.40625 12.789062 6.410156 12.789062 6.410156 12.789062 C 6.410156 12.789062 6.414062 12.789062 6.414062 12.789062 L 6.425781 12.789062 C 6.464844 12.789062 6.507812 12.789062 6.546875 12.785156 L 6.570312 12.785156 C 6.75 12.773438 6.921875 12.738281 7.085938 12.683594 C 7.289062 12.988281 7.578125 13.246094 7.929688 13.417969 C 8.230469 13.5625 8.550781 13.632812 8.863281 13.632812 C 9.167969 13.632812 9.464844 13.566406 9.738281 13.441406 C 10.136719 13.863281 10.695312 14.117188 11.300781 14.117188 C 11.433594 14.117188 11.566406 14.105469 11.699219 14.082031 C 12.214844 13.984375 12.652344 13.710938 12.960938 13.335938 C 13.164062 13.089844 13.308594 12.800781 13.382812 12.492188 C 13.738281 12.457031 14.09375 12.332031 14.402344 12.113281 C 14.699219 11.90625 14.929688 11.632812 15.085938 11.328125 C 15.238281 11.027344 15.316406 10.691406 15.316406 10.351562 C 15.316406 10.128906 15.28125 9.902344 15.207031 9.683594 C 15.394531 9.535156 15.558594 9.351562 15.6875 9.136719 C 15.898438 8.789062 16 8.402344 16 8.023438 C 16 7.464844 15.785156 6.921875 15.382812 6.511719 Z M 15.039062 8.742188 C 14.820312 9.101562 14.472656 9.324219 14.089844 9.390625 C 13.96875 9.410156 13.890625 9.523438 13.910156 9.640625 C 13.929688 9.757812 14.042969 9.835938 14.160156 9.816406 C 14.25 9.800781 14.335938 9.78125 14.421875 9.75 C 14.515625 9.941406 14.558594 10.148438 14.558594 10.351562 C 14.558594 10.574219 14.507812 10.789062 14.410156 10.984375 C 14.308594 11.183594 14.160156 11.355469 13.96875 11.492188 C 13.726562 11.664062 13.449219 11.746094 13.175781 11.746094 C 13.152344 11.746094 13.132812 11.742188 13.109375 11.742188 C 13.105469 11.707031 13.101562 11.667969 13.09375 11.632812 C 13.046875 11.382812 12.949219 11.152344 12.816406 10.953125 L 12.796875 10.929688 L 12.777344 10.910156 C 12.613281 10.769531 12.394531 10.539062 12.226562 10.304688 C 12.140625 10.1875 12.070312 10.066406 12.023438 9.960938 C 11.972656 9.855469 11.949219 9.761719 11.949219 9.707031 C 11.949219 9.683594 11.953125 9.667969 11.957031 9.65625 C 11.964844 9.644531 11.96875 9.640625 11.976562 9.632812 C 12.058594 9.546875 12.058594 9.410156 11.976562 9.324219 C 11.890625 9.242188 11.753906 9.242188 11.667969 9.324219 C 11.617188 9.378906 11.578125 9.441406 11.550781 9.507812 C 11.527344 9.574219 11.519531 9.644531 11.519531 9.707031 C 11.519531 9.859375 11.5625 10 11.628906 10.140625 C 11.726562 10.351562 11.871094 10.5625 12.023438 10.75 C 12.171875 10.929688 12.328125 11.089844 12.46875 11.214844 C 12.5625 11.363281 12.632812 11.53125 12.667969 11.714844 C 12.683594 11.792969 12.691406 11.867188 12.691406 11.941406 L 12.691406 11.945312 C 12.691406 11.953125 12.691406 11.964844 12.691406 11.972656 C 12.691406 12.300781 12.574219 12.609375 12.375 12.855469 C 12.175781 13.097656 11.894531 13.273438 11.558594 13.335938 C 11.472656 13.351562 11.386719 13.359375 11.300781 13.359375 C 10.839844 13.363281 10.417969 13.132812 10.160156 12.765625 C 10.296875 12.625 10.414062 12.460938 10.503906 12.277344 C 10.617188 12.046875 10.675781 11.804688 10.683594 11.5625 C 10.691406 11.441406 10.597656 11.339844 10.476562 11.335938 C 10.359375 11.332031 10.257812 11.421875 10.253906 11.542969 C 10.246094 11.726562 10.199219 11.910156 10.113281 12.085938 C 10.023438 12.277344 9.898438 12.433594 9.746094 12.558594 C 9.496094 12.761719 9.183594 12.875 8.863281 12.875 C 8.660156 12.875 8.453125 12.828125 8.261719 12.734375 C 7.898438 12.5625 7.648438 12.253906 7.539062 11.898438 C 7.496094 11.765625 7.472656 11.625 7.472656 11.480469 C 7.472656 11.28125 7.519531 11.074219 7.613281 10.878906 C 7.664062 10.773438 7.617188 10.640625 7.511719 10.589844 C 7.402344 10.539062 7.273438 10.585938 7.222656 10.691406 C 7.097656 10.945312 7.039062 11.21875 7.039062 11.480469 C 7.039062 11.609375 7.054688 11.738281 7.082031 11.863281 C 6.914062 11.957031 6.722656 12.015625 6.515625 12.03125 C 6.480469 12.03125 6.449219 12.03125 6.414062 12.03125 C 6.089844 12.03125 5.789062 11.921875 5.550781 11.730469 C 5.339844 11.5625 5.183594 11.335938 5.097656 11.074219 C 5.25 10.925781 5.375 10.75 5.46875 10.554688 C 5.519531 10.445312 5.472656 10.316406 5.363281 10.265625 C 5.257812 10.214844 5.128906 10.261719 5.074219 10.371094 C 4.992188 10.550781 4.867188 10.710938 4.714844 10.839844 C 4.496094 11.023438 4.222656 11.140625 3.917969 11.164062 C 3.882812 11.164062 3.851562 11.167969 3.816406 11.167969 C 3.128906 11.167969 2.542969 10.660156 2.445312 9.980469 L 2.445312 9.976562 C 2.4375 9.945312 2.433594 9.910156 2.433594 9.875 C 2.429688 9.84375 2.429688 9.808594 2.429688 9.777344 C 2.429688 9.6875 2.4375 9.601562 2.453125 9.519531 C 2.472656 9.402344 2.398438 9.289062 2.277344 9.265625 C 2.160156 9.246094 2.046875 9.324219 2.027344 9.441406 C 2.007812 9.550781 1.996094 9.660156 1.996094 9.777344 L 1.996094 9.789062 C 1.800781 9.765625 1.613281 9.703125 1.445312 9.605469 C 1.230469 9.480469 1.046875 9.296875 0.921875 9.0625 C 0.808594 8.855469 0.757812 8.628906 0.757812 8.410156 C 0.757812 8.125 0.847656 7.84375 1.011719 7.609375 C 1.074219 7.699219 1.144531 7.78125 1.222656 7.859375 C 1.40625 8.039062 1.617188 8.171875 1.84375 8.257812 C 1.953125 8.304688 2.078125 8.246094 2.121094 8.136719 C 2.164062 8.023438 2.109375 7.898438 2 7.855469 C 1.828125 7.789062 1.667969 7.6875 1.527344 7.550781 C 1.40625 7.429688 1.308594 7.292969 1.242188 7.148438 C 1.152344 6.960938 1.109375 6.761719 1.109375 6.558594 C 1.109375 6.207031 1.242188 5.855469 1.507812 5.585938 C 1.730469 5.355469 2.015625 5.222656 2.3125 5.183594 C 2.375 5.171875 2.4375 5.167969 2.5 5.167969 C 2.851562 5.167969 3.203125 5.300781 3.472656 5.566406 C 3.558594 5.648438 3.695312 5.648438 3.777344 5.5625 C 3.863281 5.476562 3.859375 5.339844 3.773438 5.257812 C 3.429688 4.917969 2.984375 4.746094 2.535156 4.738281 C 2.585938 4.53125 2.683594 4.339844 2.820312 4.175781 C 3.007812 3.953125 3.265625 3.785156 3.574219 3.714844 C 3.679688 3.691406 3.785156 3.679688 3.886719 3.679688 C 4.066406 3.679688 4.246094 3.714844 4.40625 3.78125 C 4.359375 3.941406 4.335938 4.113281 4.335938 4.289062 C 4.335938 4.40625 4.433594 4.503906 4.550781 4.503906 C 4.671875 4.503906 4.769531 4.40625 4.769531 4.289062 C 4.769531 4.097656 4.804688 3.917969 4.875 3.753906 C 4.980469 3.5 5.15625 3.289062 5.378906 3.136719 C 5.601562 2.984375 5.867188 2.898438 6.160156 2.898438 C 6.574219 2.898438 6.949219 3.078125 7.203125 3.371094 C 7.417969 3.617188 7.546875 3.933594 7.546875 4.289062 C 7.546875 4.40625 7.644531 4.503906 7.765625 4.503906 C 7.882812 4.503906 7.980469 4.40625 7.980469 4.289062 C 7.980469 3.886719 7.851562 3.515625 7.632812 3.214844 C 7.746094 3.058594 7.886719 2.929688 8.054688 2.832031 C 8.261719 2.707031 8.5 2.640625 8.757812 2.640625 C 9.054688 2.640625 9.328125 2.730469 9.554688 2.890625 C 9.78125 3.046875 9.957031 3.273438 10.058594 3.53125 C 10.117188 3.6875 10.148438 3.855469 10.148438 4.027344 C 10.148438 4.148438 10.246094 4.246094 10.363281 4.246094 C 10.484375 4.246094 10.582031 4.148438 10.582031 4.027344 C 10.582031 3.851562 10.554688 3.675781 10.507812 3.515625 C 10.761719 3.277344 11.101562 3.140625 11.453125 3.140625 C 11.636719 3.140625 11.824219 3.175781 12.003906 3.253906 C 12.253906 3.363281 12.457031 3.535156 12.597656 3.742188 C 12.742188 3.953125 12.828125 4.199219 12.839844 4.453125 C 12.84375 4.476562 12.84375 4.503906 12.84375 4.53125 C 12.84375 4.714844 12.808594 4.898438 12.730469 5.078125 C 12.683594 5.191406 12.734375 5.316406 12.84375 5.363281 C 12.953125 5.410156 13.082031 5.359375 13.128906 5.25 C 13.207031 5.0625 13.253906 4.871094 13.269531 4.679688 C 13.480469 4.691406 13.6875 4.757812 13.871094 4.863281 C 14.082031 4.988281 14.257812 5.167969 14.378906 5.402344 C 14.488281 5.601562 14.539062 5.816406 14.539062 6.03125 C 14.539062 6.128906 14.527344 6.226562 14.503906 6.320312 C 14.375 6.269531 14.242188 6.234375 14.105469 6.214844 C 13.988281 6.199219 13.878906 6.28125 13.859375 6.398438 C 13.84375 6.519531 13.925781 6.628906 14.046875 6.644531 C 14.179688 6.664062 14.316406 6.703125 14.445312 6.761719 C 14.464844 6.800781 14.5 6.832031 14.542969 6.847656 C 14.570312 6.859375 14.597656 6.867188 14.625 6.867188 C 14.703125 6.917969 14.777344 6.980469 14.84375 7.046875 L 14.839844 7.042969 L 14.84375 7.046875 C 15.101562 7.308594 15.242188 7.660156 15.242188 8.023438 C 15.242188 8.269531 15.175781 8.515625 15.039062 8.742188 Z M 15.039062 8.742188 "/>
</g>
</svg>
